<?xml version="1.0" encoding="utf-8"?>
<!-- Generator: Adobe Illustrator 19.1.0, SVG Export Plug-In . SVG Version: 6.00 Build 0)  -->
<svg version="1.1" id="Layer_1" xmlns="http://www.w3.org/2000/svg" xmlns:xlink="http://www.w3.org/1999/xlink" x="0px" y="0px"
	 viewBox="-251.5 308.5 103.4 128.6" style="enable-background:new -251.5 308.5 103.4 128.6;" xml:space="preserve">
<style type="text/css">
	.st0{fill:none;}
	.st1{fill:#417586;}
	.st2{fill:#DDDEE2;}
	.st3{fill:#FFFFFF;}
</style>
<ellipse class="st0" cx="-199.9" cy="403.5" rx="4.2" ry="4"/>
<path class="st0" d="M-200.7,358.2c10,0,18.2-10.5,19.3-24c0.1-0.9,0.2-1.8,0.2-2.7l-3.1,3.4c1.7-3.6-4.4-12.8-4.4-12.8
	c-10.3,7.1-25.6,0-25.6,0c-4.6,1.7-2.4,14.1-2.4,14.1c-1.2-0.8-2.2-1.2-3.1-1.4C-218.6,348.1-210.5,358.2-200.7,358.2z"/>
<path class="st1" d="M-161.5,433.2c0,0-0.1,0-0.1,0h-76.4c0,0-0.1,0-0.1,0c-1.1,0.1-2,0.9-2,2c0,1.1,0.9,2,2.1,2h76.4
	c1.1,0,2.1-0.9,2.1-2C-159.6,434.1-160.4,433.3-161.5,433.2z"/>
<path class="st1" d="M-182.3,359.1c-0.1,5-8,9.1-17.6,9.1c-9.7,0-17.5-4.1-17.6-9.1c-10.4,0.9-19.1,7-23.5,15.5h82.1
	C-163.1,366.1-171.9,360-182.3,359.1z"/>
<g>
	<ellipse class="st2" cx="-199.9" cy="403.5" rx="4.2" ry="4"/>
	<g>
		<ellipse class="st3" cx="-199.9" cy="403.5" rx="4.2" ry="4"/>
		<path class="st2" d="M-246.8,376.3c-2.6,0-4.7,2-4.7,4.5l4.7,45.9c0,2.5,2.1,4.5,4.7,4.5h84.4c2.6,0,4.7-2,4.7-4.5l4.7-45.9
			c0-2.5-2.1-4.5-4.7-4.5 M-199.9,407.5c-2.3,0-4.2-1.8-4.2-4c0-2.2,1.9-4,4.2-4c2.3,0,4.2,1.8,4.2,4
			C-195.7,405.7-197.6,407.5-199.9,407.5z"/>
	</g>
</g>
<path d="M-222.6,334.1c0,0.2,0,0.4,0.1,0.6c1.4,15.1,10.7,26.7,21.9,26.7c11.4,0,20.7-12,21.9-27.3c0.2-1.1,0.3-2.2,0.3-3.4
	c0-1.2-0.1-2.3-0.3-3.4c-1.6-10.7-10.8-18.9-21.9-18.9c-11.1,0-20.3,8.2-21.9,18.9c-0.2,1.1-0.3,2.2-0.3,3.4c0,0.5,0,0.9,0,1.4
	C-222.8,332.8-222.7,333.5-222.6,334.1z M-214.4,322.1c0,0,15.3,7.1,25.6,0c0,0,6.1,9.2,4.4,12.8l3.1-3.4c0,0.9-0.1,1.8-0.2,2.7
	c-1.1,13.5-9.3,24-19.3,24c-9.8,0-17.9-10.2-19.2-23.3c0.9,0.2,1.9,0.6,3.1,1.4C-216.8,336.3-219,323.9-214.4,322.1z"/>
</svg>
