<?xml version="1.0" encoding="utf-8"?>
<!-- Generator: Adobe Illustrator 19.1.0, SVG Export Plug-In . SVG Version: 6.00 Build 0)  -->
<svg version="1.1" id="Layer_1" xmlns="http://www.w3.org/2000/svg" xmlns:xlink="http://www.w3.org/1999/xlink" x="0px" y="0px"
	 viewBox="-255 334 87.7 91" style="enable-background:new -255 334 87.7 91;" xml:space="preserve">
<style type="text/css">
	.st0{fill:#F15C22;}
</style>
<path class="st0" d="M-211.1,334c-24.2,0-43.9,19.6-43.9,43.9c0,24.2,19.6,43.9,43.9,43.9c24.2,0,43.9-19.6,43.9-43.9
	C-167.3,353.6-186.9,334-211.1,334z M-211.3,415.2c-20.7,0-37.5-16.8-37.5-37.5c0-20.7,16.8-37.5,37.5-37.5s37.5,16.8,37.5,37.5
	C-173.8,398.4-190.6,415.2-211.3,415.2z"/>
<polygon class="st0" points="-186.1,392.2 -190.6,385.8 -191.5,387.5 -209.1,379.3 -209.1,361 -209.1,350 -207.3,350 -211,343.5 
	-214.7,350 -213.1,350 -213.1,361 -213.1,382 -212.7,382 -212.7,382 -193.1,391.2 -193.9,392.9 "/>
</svg>
