<?xml version="1.0" encoding="utf-8"?>
<!-- Generator: Adobe Illustrator 19.1.0, SVG Export Plug-In . SVG Version: 6.00 Build 0)  -->
<svg version="1.1" id="Layer_1" xmlns="http://www.w3.org/2000/svg" xmlns:xlink="http://www.w3.org/1999/xlink" x="0px" y="0px"
	 viewBox="-246.6 359 83.2 41.7" style="enable-background:new -246.6 359 83.2 41.7;" xml:space="preserve">
<style type="text/css">
	.st0{fill:#B18F3A;}
</style>
<path class="st0" d="M-213.3,371.5c0-6.9-5.6-12.5-12.5-12.5h-8.3c-6.9,0-12.5,5.6-12.5,12.5v16.7c0,6.9,5.6,12.5,12.5,12.5h8.3
	c6.9,0,12.5-5.6,12.5-12.5V384h25v16.7h8.3V384h8.3v16.7h8.3V384v-8.3h-50L-213.3,371.5L-213.3,371.5z M-221.7,388.2
	c0,2.3-1.9,4.2-4.2,4.2h-8.3c-2.3,0-4.2-1.9-4.2-4.2v-16.7c0-2.3,1.9-4.2,4.2-4.2h8.3c2.3,0,4.2,1.9,4.2,4.2V388.2z"/>
</svg>
