<?xml version="1.0" encoding="utf-8"?>
<!-- Generator: Adobe Illustrator 19.1.0, SVG Export Plug-In . SVG Version: 6.00 Build 0)  -->
<svg version="1.1" id="Layer_1" xmlns="http://www.w3.org/2000/svg" xmlns:xlink="http://www.w3.org/1999/xlink" x="0px" y="0px"
	 viewBox="-244.8 334 80 99.8" style="enable-background:new -244.8 334 80 99.8;" xml:space="preserve">
<style type="text/css">
	.st0{fill:#417487;}
</style>
<path class="st0" d="M-173.5,379.1c-1.2,0-1.9,0-1.9,0v-15.7c-0.1-19.2-13.2-29.6-29.1-29.6c-15.9,0-30.2,10.9-29.7,29.6l0,15.6
	c0,0,0.2,0-1,0c-1.3,0-9.6,1.5-9.6,8.9v35.8c0,8,9.4,9.9,9.6,9.9c16.8,0,44.4,0,61.2,0c0.2,0,9.2-1,9.2-9.9v-35.3
	C-164.8,380.1-173.3,379.1-173.5,379.1z M-195.7,420.1h-18.3l5-14.6c-2.1-1.4-3.5-3.9-3.5-6.7c0-4.4,3.4-7.9,7.7-7.9
	s7.7,3.6,7.7,7.9c0,2.8-1.4,5.3-3.5,6.7L-195.7,420.1z M-220.7,379.1l0-15.4c0-9.9,6.1-17.9,15.9-17.9c9.7,0,15.9,7,15.9,17.9
	l0,15.4H-220.7z"/>
</svg>
