<?xml version="1.0" encoding="utf-8"?>
<!-- Generator: Adobe Illustrator 19.1.0, SVG Export Plug-In . SVG Version: 6.00 Build 0)  -->
<svg version="1.1" id="Layer_1" xmlns="http://www.w3.org/2000/svg" xmlns:xlink="http://www.w3.org/1999/xlink" x="0px" y="0px"
	 viewBox="-255 373 100 23.5" style="enable-background:new -255 373 100 23.5;" xml:space="preserve">
<style type="text/css">
	.st0{fill:#7A8999;}
	.st1{fill:#88963A;}
</style>
<path class="st0" d="M-166,385.7c-5.9,0-11.4,0-17.9,0v-5.4c0-1.5,1.2-2.6,2.6-2.6h12.7c1.4,0,2.6,1.2,2.6,2.6L-166,385.7
	L-166,385.7z"/>
<path class="st0" d="M-187.1,385.7c-5.9,0-11.4,0-17.9,0v-5.4c0-1.5,1.2-2.6,2.6-2.6h12.7c1.4,0,2.6,1.2,2.6,2.6L-187.1,385.7
	L-187.1,385.7z"/>
<path class="st1" d="M-162.6,387.7H-208v-10.4c0-1.5-1.2-2.6-2.6-2.6h-30.8c-1.5,0-2.6,1.2-2.6,2.6v10.4h-3.4
	c-1.5,0-2.6,1.2-2.6,2.6v0.3c0,1.5,1.2,2.6,2.6,2.6h84.8c1.5,0,2.6-1.2,2.6-2.6v-0.3C-160,388.9-161.2,387.7-162.6,387.7z"/>
</svg>
